<!-- myntra-icon.svg -->
<svg xmlns="http://www.w3.org/2000/svg" viewBox="0 0 24 24" width="24" height="24">
  <path fill="#000000" d="M11.988 2.12c-4.708 0-8.552 3.844-8.552 8.552 0 2.025.72 3.875 1.928 5.32l-.22.219c-2.728-2.458-2.994-6.477-.682-9.33l.233-.278c2.206-2.94 6.68-3.408 9.33-.682l.278.233c2.852 2.31 2.62 7.273-.663 9.33l-.24.208c1.54 1.25 2.578 3.113 2.578 5.23 0 4.708-3.844 8.552-8.552 8.552-4.708 0-8.552-3.844-8.552-8.552 0-2.028.724-3.88 1.936-5.322l.22.219c2.725 2.458 2.99 6.478.682 9.33l-.235.28c-2.202 2.938-6.68 3.406-9.33.68l-.28-.23c-2.852-2.31-2.62-7.27.663-9.33l.242-.208c-1.54-1.25-2.578-3.113-2.578-5.23 0-4.708 3.844-8.552 8.552-8.552 4.708 0 8.552 3.844 8.552 8.552 0 2.03-.724 3.88-1.938 5.324l-.218-.22c-2.73-2.458-2.996-6.477-.684-9.33l-.232-.28c-2.206-2.94-6.68-3.408-9.33-.682l-.278.235c-2.85 2.308-2.62 7.27.662 9.33l.24.208c-1.54 1.25-2.576 3.115-2.576 5.23 0 4.708 3.844 8.552 8.552 8.552s8.552-3.844 8.552-8.552c0-2.03-.722-3.88-1.934-5.324l.22-.22c2.728-2.458 2.994-6.477.682-9.33l-.233-.28c-2.206-2.94-6.68-3.408-9.33-.682l-.278.235c-2.852 2.308-2.62 7.27.662 9.33l.24.208c-1.538 1.25-2.576 3.113-2.576 5.23 0 4.708 3.844 8.552 8.552 8.552s8.552-3.844 8.552-8.552-3.844-8.552-8.552-8.552z"/>
</svg>
